<svg width="27" height="30" viewBox="0 0 27 30" fill="none" xmlns="http://www.w3.org/2000/svg">
<path d="M13.72 7.76C15.4133 7.76 16.8133 8.17333 17.92 9C19.0267 9.81333 19.8067 10.94 20.26 12.38H18.78C18.4067 11.3667 17.7867 10.56 16.92 9.96C16.0533 9.36 14.98 9.06 13.7 9.06C12.7267 9.06 11.84 9.3 11.04 9.78C10.2533 10.26 9.63333 10.9467 9.18 11.84C8.72667 12.7333 8.5 13.7733 8.5 14.96C8.5 16.1467 8.72667 17.1867 9.18 18.08C9.63333 18.96 10.2533 19.64 11.04 20.12C11.84 20.6 12.7267 20.84 13.7 20.84C14.98 20.84 16.0533 20.54 16.92 19.94C17.7867 19.34 18.4067 18.5333 18.78 17.52H20.26C19.8067 18.96 19.0267 20.0933 17.92 20.92C16.8133 21.7333 15.4133 22.14 13.72 22.14C12.4267 22.14 11.2733 21.8333 10.26 21.22C9.24667 20.6067 8.46 19.76 7.9 18.68C7.34 17.5867 7.06 16.3467 7.06 14.96C7.06 13.56 7.34 12.3133 7.9 11.22C8.46 10.1267 9.24667 9.28 10.26 8.68C11.2733 8.06667 12.4267 7.76 13.72 7.76Z" fill="white"/>
<circle cx="13.5" cy="14.5" r="12.75" stroke="#FFFDFC" stroke-width="1.5"/>
</svg>
