<svg width="53" height="53" viewBox="0 0 53 53" fill="none" xmlns="http://www.w3.org/2000/svg">
<rect width="53" height="53" rx="7" fill="white"/>
<path d="M32.324 14.16V39H29.804V18.192L21.2 39H18.932L10.292 18.264V39H7.736V14.16H10.724L20.084 35.868L29.372 14.16H32.324ZM41.4578 25.86C43.0418 26.172 44.3258 26.904 45.3098 28.056C46.2938 29.208 46.7858 30.576 46.7858 32.16C46.7858 34.2 46.0898 35.856 44.6978 37.128C43.3058 38.376 41.2898 39 38.6498 39H29.8298V13.62H38.5418C41.0858 13.62 42.9938 14.196 44.2658 15.348C45.5618 16.476 46.2098 18 46.2098 19.92C46.2098 21.576 45.7658 22.908 44.8778 23.916C43.9898 24.9 42.8498 25.548 41.4578 25.86ZM32.3857 24.96H38.2178C39.9938 24.96 41.3378 24.552 42.2498 23.736C43.1858 22.896 43.6538 21.756 43.6538 20.316C43.6538 18.9 43.1978 17.784 42.2858 16.968C41.3738 16.152 39.9698 15.744 38.0738 15.744H32.3857V24.96ZM38.2178 36.84C40.1138 36.84 41.5898 36.408 42.6458 35.544C43.7018 34.656 44.2298 33.432 44.2298 31.872C44.2298 30.336 43.6898 29.124 42.6098 28.236C41.5298 27.324 40.0418 26.868 38.1458 26.868H32.3857V36.84H38.2178Z" fill="#D64045"/>
</svg>
