<svg width="111" height="116" viewBox="0 0 111 116" fill="none" xmlns="http://www.w3.org/2000/svg">
<path d="M55.063 37.3377H36.7143C35.6097 37.3377 34.7143 38.2332 34.7143 39.3377V110.098C34.7143 111.203 35.6097 112.098 36.7143 112.098H57.5588C58.6634 112.098 59.5588 111.203 59.5588 110.098V69.3293C59.5588 51.3919 85.084 51.9592 85.084 69.3293V110.098C85.084 111.203 85.9795 112.098 87.084 112.098H106C107.105 112.098 108 111.203 108 110.098V59.2327C108 55.1356 106.147 50.1485 103.122 45.3792C93.971 30.9548 66.2648 30.0443 57.8044 48.1484C57.6411 48.4979 57.063 48.3857 57.063 48V39.3377C57.063 38.2332 56.1676 37.3377 55.063 37.3377Z" stroke="#FFFDFC" stroke-width="6"/>
<mask id="path-2-inside-1_92_851" fill="white">
<rect x="2.04202" y="34.7148" width="26.7731" height="79.1849" rx="5"/>
</mask>
<rect x="2.04202" y="34.7148" width="26.7731" height="79.1849" rx="5" stroke="#FFFDFC" stroke-width="12" mask="url(#path-2-inside-1_92_851)"/>
<circle cx="15.4286" cy="15.4286" r="12.4286" stroke="#FFFDFC" stroke-width="6"/>
</svg>
