<svg width="180" height="78" viewBox="0 0 180 78" fill="none" xmlns="http://www.w3.org/2000/svg">
<path d="M27.324 10.16V35H24.804V14.192L16.2 35H13.932L5.292 14.264V35H2.736V10.16H5.724L15.084 31.868L24.372 10.16H27.324ZM43.2698 15.092C45.2618 15.092 46.9538 15.608 48.3458 16.64C49.7618 17.672 50.7338 19.04 51.2617 20.744V15.344H53.7457V35H51.2617V29.6C50.7338 31.304 49.7618 32.672 48.3458 33.704C46.9538 34.736 45.2618 35.252 43.2698 35.252C41.4938 35.252 39.8978 34.844 38.4818 34.028C37.0897 33.212 35.9977 32.048 35.2057 30.536C34.4377 29 34.0537 27.212 34.0537 25.172C34.0537 23.108 34.4377 21.32 35.2057 19.808C35.9977 18.272 37.0897 17.108 38.4818 16.316C39.8738 15.5 41.4698 15.092 43.2698 15.092ZM43.9177 17.324C41.7098 17.324 39.9338 18.032 38.5898 19.448C37.2698 20.84 36.6098 22.748 36.6098 25.172C36.6098 27.596 37.2698 29.516 38.5898 30.932C39.9338 32.324 41.7098 33.02 43.9177 33.02C45.3098 33.02 46.5578 32.696 47.6618 32.048C48.7898 31.4 49.6658 30.488 50.2898 29.312C50.9378 28.112 51.2617 26.732 51.2617 25.172C51.2617 23.612 50.9378 22.244 50.2898 21.068C49.6658 19.868 48.7898 18.944 47.6618 18.296C46.5578 17.648 45.3098 17.324 43.9177 17.324ZM69.6524 15.092C71.6444 15.092 73.3364 15.608 74.7284 16.64C76.1444 17.672 77.1164 19.04 77.6444 20.744V15.344H80.1284V35H77.6444V29.6C77.1164 31.304 76.1444 32.672 74.7284 33.704C73.3364 34.736 71.6444 35.252 69.6524 35.252C67.8764 35.252 66.2804 34.844 64.8644 34.028C63.4724 33.212 62.3804 32.048 61.5884 30.536C60.8204 29 60.4364 27.212 60.4364 25.172C60.4364 23.108 60.8204 21.32 61.5884 19.808C62.3804 18.272 63.4724 17.108 64.8644 16.316C66.2564 15.5 67.8524 15.092 69.6524 15.092ZM70.3004 17.324C68.0924 17.324 66.3164 18.032 64.9724 19.448C63.6524 20.84 62.9924 22.748 62.9924 25.172C62.9924 27.596 63.6524 29.516 64.9724 30.932C66.3164 32.324 68.0924 33.02 70.3004 33.02C71.6924 33.02 72.9404 32.696 74.0444 32.048C75.1724 31.4 76.0484 30.488 76.6724 29.312C77.3204 28.112 77.6444 26.732 77.6444 25.172C77.6444 23.612 77.3204 22.244 76.6724 21.068C76.0484 19.868 75.1724 18.944 74.0444 18.296C72.9404 17.648 71.6924 17.324 70.3004 17.324ZM90.3111 19.412C90.8871 17.996 91.8111 16.904 93.0831 16.136C94.3551 15.368 95.9031 14.984 97.7271 14.984V17.72H96.8991C95.0031 17.72 93.4311 18.236 92.1831 19.268C90.9351 20.276 90.3111 21.932 90.3111 24.236V35H87.7551V15.344H90.3111V19.412ZM112.167 32.768V35H109.827C107.931 35 106.515 34.556 105.579 33.668C104.643 32.756 104.175 31.232 104.175 29.096V17.54H101.187V15.344H104.175V10.376H106.731V15.344H112.131V17.54H106.731V29.132C106.731 30.524 106.983 31.484 107.487 32.012C107.991 32.516 108.879 32.768 110.151 32.768H112.167ZM120.025 11.204C119.473 11.204 119.017 11.048 118.657 10.736C118.321 10.424 118.153 10.016 118.153 9.512C118.153 8.984 118.321 8.564 118.657 8.252C119.017 7.94 119.473 7.784 120.025 7.784C120.577 7.784 121.021 7.94 121.357 8.252C121.693 8.564 121.861 8.984 121.861 9.512C121.861 10.016 121.693 10.424 121.357 10.736C121.021 11.048 120.577 11.204 120.025 11.204ZM114.769 42.056H116.137C117.049 42.056 117.709 41.852 118.117 41.444C118.549 41.036 118.765 40.328 118.765 39.32V15.344H121.285V39.464C121.285 42.68 119.653 44.288 116.389 44.288H114.769V42.056ZM137.502 33.164C139.278 33.164 140.766 32.72 141.966 31.832C143.166 30.944 143.886 29.744 144.126 28.232H146.79C146.43 30.32 145.434 32.012 143.802 33.308C142.17 34.604 140.106 35.252 137.61 35.252C135.738 35.252 134.07 34.856 132.606 34.064C131.166 33.248 130.038 32.084 129.222 30.572C128.406 29.036 127.998 27.236 127.998 25.172C127.998 23.108 128.406 21.32 129.222 19.808C130.038 18.272 131.166 17.108 132.606 16.316C134.07 15.5 135.738 15.092 137.61 15.092C139.53 15.092 141.186 15.5 142.578 16.316C143.994 17.108 145.062 18.176 145.782 19.52C146.526 20.864 146.898 22.328 146.898 23.912C146.898 24.584 146.85 25.196 146.754 25.748H130.482C130.506 27.404 130.842 28.796 131.49 29.924C132.162 31.028 133.026 31.844 134.082 32.372C135.138 32.9 136.278 33.164 137.502 33.164ZM137.61 17.144C136.338 17.144 135.174 17.408 134.118 17.936C133.062 18.464 132.198 19.28 131.526 20.384C130.878 21.464 130.53 22.82 130.482 24.452H144.378C144.474 22.844 144.21 21.488 143.586 20.384C142.962 19.28 142.122 18.464 141.066 17.936C140.01 17.408 138.858 17.144 137.61 17.144Z" fill="#D64045"/>
<path d="M68.364 54.86C69.948 55.172 71.232 55.904 72.216 57.056C73.2 58.208 73.692 59.576 73.692 61.16C73.692 63.2 72.996 64.856 71.604 66.128C70.212 67.376 68.196 68 65.556 68H56.736V42.62H65.448C67.992 42.62 69.9 43.196 71.172 44.348C72.468 45.476 73.116 47 73.116 48.92C73.116 50.576 72.672 51.908 71.784 52.916C70.896 53.9 69.756 54.548 68.364 54.86ZM59.292 53.96H65.124C66.9 53.96 68.244 53.552 69.156 52.736C70.092 51.896 70.56 50.756 70.56 49.316C70.56 47.9 70.104 46.784 69.192 45.968C68.28 45.152 66.876 44.744 64.98 44.744H59.292V53.96ZM65.124 65.84C67.02 65.84 68.496 65.408 69.552 64.544C70.608 63.656 71.136 62.432 71.136 60.872C71.136 59.336 70.596 58.124 69.516 57.236C68.436 56.324 66.948 55.868 65.052 55.868H59.292V65.84H65.124ZM88.4455 48.092C90.4375 48.092 92.1295 48.608 93.5215 49.64C94.9375 50.672 95.9095 52.04 96.4375 53.744V48.344H98.9215V68H96.4375V62.6C95.9095 64.304 94.9375 65.672 93.5215 66.704C92.1295 67.736 90.4375 68.252 88.4455 68.252C86.6695 68.252 85.0735 67.844 83.6575 67.028C82.2655 66.212 81.1735 65.048 80.3815 63.536C79.6135 62 79.2295 60.212 79.2295 58.172C79.2295 56.108 79.6135 54.32 80.3815 52.808C81.1735 51.272 82.2655 50.108 83.6575 49.316C85.0495 48.5 86.6455 48.092 88.4455 48.092ZM89.0935 50.324C86.8855 50.324 85.1095 51.032 83.7655 52.448C82.4455 53.84 81.7855 55.748 81.7855 58.172C81.7855 60.596 82.4455 62.516 83.7655 63.932C85.1095 65.324 86.8855 66.02 89.0935 66.02C90.4855 66.02 91.7335 65.696 92.8375 65.048C93.9655 64.4 94.8415 63.488 95.4655 62.312C96.1135 61.112 96.4375 59.732 96.4375 58.172C96.4375 56.612 96.1135 55.244 95.4655 54.068C94.8415 52.868 93.9655 51.944 92.8375 51.296C91.7335 50.648 90.4855 50.324 89.0935 50.324ZM117.06 68L109.104 59V68H106.548V41.36H109.104V56.984L116.916 48.344H120.048L111.012 58.064L120.3 68H117.06ZM135.955 68L127.999 59V68H125.443V41.36H127.999V56.984L135.811 48.344H138.943L129.907 58.064L139.195 68H135.955ZM152.905 66.164C154.681 66.164 156.169 65.72 157.369 64.832C158.569 63.944 159.289 62.744 159.529 61.232H162.193C161.833 63.32 160.837 65.012 159.205 66.308C157.573 67.604 155.509 68.252 153.013 68.252C151.141 68.252 149.473 67.856 148.009 67.064C146.569 66.248 145.441 65.084 144.625 63.572C143.809 62.036 143.401 60.236 143.401 58.172C143.401 56.108 143.809 54.32 144.625 52.808C145.441 51.272 146.569 50.108 148.009 49.316C149.473 48.5 151.141 48.092 153.013 48.092C154.933 48.092 156.589 48.5 157.981 49.316C159.397 50.108 160.465 51.176 161.185 52.52C161.929 53.864 162.301 55.328 162.301 56.912C162.301 57.584 162.253 58.196 162.157 58.748H145.885C145.909 60.404 146.245 61.796 146.893 62.924C147.565 64.028 148.429 64.844 149.485 65.372C150.541 65.9 151.681 66.164 152.905 66.164ZM153.013 50.144C151.741 50.144 150.577 50.408 149.521 50.936C148.465 51.464 147.601 52.28 146.929 53.384C146.281 54.464 145.933 55.82 145.885 57.452H159.781C159.877 55.844 159.613 54.488 158.989 53.384C158.365 52.28 157.525 51.464 156.469 50.936C155.413 50.408 154.261 50.144 153.013 50.144ZM171.553 52.412C172.129 50.996 173.053 49.904 174.325 49.136C175.597 48.368 177.145 47.984 178.969 47.984V50.72H178.141C176.245 50.72 174.673 51.236 173.425 52.268C172.177 53.276 171.553 54.932 171.553 57.236V68H168.997V48.344H171.553V52.412Z" fill="#D64045"/>
</svg>
